<?xml version="1.0" encoding="utf-8"?>
<!-- Generator: Adobe Illustrator 20.1.0, SVG Export Plug-In . SVG Version: 6.00 Build 0)  -->
<svg version="1.1" id="Layer_1" xmlns="http://www.w3.org/2000/svg" xmlns:xlink="http://www.w3.org/1999/xlink" x="0px" y="0px"
	 viewBox="0 0 88.5 81.4" style="enable-background:new 0 0 88.5 81.4;" xml:space="preserve">
<style type="text/css">
	.st0{fill:#FFFFFF;}
	.st1{fill:none;stroke:#151E2D;stroke-miterlimit:10;}
</style>
<g>
	<path class="st0" d="M64.5,32.8 M64.5,39.4v-6.6c0-0.7-0.6-1.3-1.3-1.3v-8.6c0-0.4-0.3-0.7-0.7-0.7H28.8c-2.9,0-5.3,2.4-5.3,5.3
		c0,0.2,0,0.4,0,0.5c0,0,0,0.1,0,0.1v25.8c0,2.9,2.4,5.3,5.3,5.3h34.4c0.7,0,1.3-0.6,1.3-1.3v-6.6c0.7,0,1.3-0.6,1.3-1.3v-9.3
		C65.8,40,65.2,39.4,64.5,39.4z M28.8,23.5h33.1v7.9h-1.3v-5.3c0-0.7-0.6-1.3-1.3-1.3H28.8c-0.7,0-1.3,0.6-1.3,1.3v5.1
		c-1.5-0.5-2.6-2-2.6-3.7C24.8,25.3,26.6,23.5,28.8,23.5z M28.8,27.5v-1.3h30.4v1.3H28.8z M59.2,28.8v2.6H28.8v-2.6H59.2z M64.5,50
		h-4.6c-2.6,0-4.6-2.1-4.6-4.6c0-2.6,2.1-4.6,4.6-4.6h4.6V50z M57.9,45.3c0,1.1,0.9,2,2,2s2-0.9,2-2s-0.9-2-2-2S57.9,44.2,57.9,45.3
		z M60.5,45.3c0,0.4-0.3,0.7-0.7,0.7c-0.4,0-0.7-0.3-0.7-0.7c0-0.4,0.3-0.7,0.7-0.7C60.2,44.7,60.5,45,60.5,45.3z"/>
	<g id="XMLID_4_">
		<g>
			<path class="st0" d="M63.2,32.8v6.6h-3.3c-3.3,0-6,2.7-6,6c0,3.3,2.7,6,6,6h3.3v6.6H28.8c-2.2,0-4-1.8-4-4V31
				c1,1.1,2.4,1.8,4,1.8H63.2z"/>
		</g>
		<g>
			<path class="st1" d="M63.2,57.9H28.8c-2.2,0-4-1.8-4-4V31c1,1.1,2.4,1.8,4,1.8h34.4v6.6h-3.3c-3.3,0-6,2.7-6,6c0,3.3,2.7,6,6,6
				h3.3V57.9z"/>
		</g>
	</g>
</g>
</svg>
