<?xml version="1.0" encoding="utf-8"?>
<!-- Generator: Adobe Illustrator 20.1.0, SVG Export Plug-In . SVG Version: 6.00 Build 0)  -->
<svg version="1.1" id="Layer_1" xmlns="http://www.w3.org/2000/svg" xmlns:xlink="http://www.w3.org/1999/xlink" x="0px" y="0px"
	 viewBox="0 0 88.5 81.4" style="enable-background:new 0 0 88.5 81.4;" xml:space="preserve">
<style type="text/css">
	.st0{fill:#FFFFFF;}
	.st1{fill:#151E2D;}
	.st2{fill:#5C6373;}
</style>
<g>
	<g id="XMLID_5_">
		<g>
			<path class="st0" d="M45,20.1c11.8,0,21.5,9.6,21.5,21.5C66.5,53.4,56.9,63,45,63c-11.8,0-21.5-9.6-21.5-21.5
				C23.6,29.7,33.2,20.1,45,20.1z"/>
		</g>
		<g>
		</g>
	</g>
	<path class="st1" d="M45.7,38.7v-7.3c0-0.4-0.3-0.7-0.7-0.7s-0.7,0.3-0.7,0.7v7.3c-1,0.3-1.8,1-2,2h-5.1c-0.4,0-0.7,0.3-0.7,0.7
		c0,0.4,0.3,0.7,0.7,0.7h5.1c0.3,1.2,1.4,2.1,2.8,2.1c1.6,0,2.9-1.3,2.9-2.9C47.9,40.1,47,39,45.7,38.7z M45,42.9
		c-0.8,0-1.4-0.6-1.4-1.4c0-0.8,0.6-1.4,1.4-1.4c0.8,0,1.4,0.6,1.4,1.4C46.5,42.3,45.8,42.9,45,42.9z"/>
	<g>
		<path class="st2" d="M34.4,29.8c-0.3-0.3-0.7-0.3-1,0s-0.3,0.7,0,1l0.5,0.5c0.1,0.1,0.3,0.2,0.5,0.2c0.2,0,0.4-0.1,0.5-0.2
			c0.3-0.3,0.3-0.7,0-1L34.4,29.8z"/>
		<path class="st2" d="M45.3,55.8c-0.4,0-1,0.3-1,0.7v0.7c0,0.4,0.6,0.7,1,0.7s1-0.3,1-0.7v-0.7C46.3,56.1,45.7,55.8,45.3,55.8z"/>
		<path class="st2" d="M33.9,51.6l-0.5,0.5c-0.3,0.3-0.3,0.7,0,1c0.1,0.1,0.3,0.2,0.5,0.2c0.2,0,0.4-0.1,0.5-0.2l0.5-0.5
			c0.3-0.3,0.3-0.7,0-1S34.2,51.3,33.9,51.6z"/>
		<path class="st2" d="M30,40.6h-0.7c-0.4,0-0.7,0.1-0.7,0.5s0.3,0.5,0.7,0.5H30c0.4,0,0.7-0.1,0.7-0.5S30.4,40.6,30,40.6z"/>
		<path class="st2" d="M60.8,40.6h-0.7c-0.4,0-0.7,0.1-0.7,0.5s0.3,0.5,0.7,0.5h0.7c0.4,0,0.7-0.1,0.7-0.5S61.2,40.6,60.8,40.6z"/>
		<path class="st2" d="M45.3,25c-0.4,0-1,0.3-1,0.7v0.7c0,0.4,0.6,0.7,1,0.7s1-0.3,1-0.7v-0.7C46.3,25.3,45.7,25,45.3,25z"/>
		<path class="st2" d="M55.7,29.8l-0.5,0.5c-0.3,0.3-0.3,0.7,0,1c0.1,0.1,0.3,0.2,0.5,0.2c0.2,0,0.4-0.1,0.5-0.2l0.5-0.5
			c0.3-0.3,0.3-0.7,0-1C56.4,29.6,55.9,29.6,55.7,29.8z"/>
		<path class="st2" d="M56.2,51.6c-0.3-0.3-0.7-0.3-1,0c-0.3,0.3-0.3,0.7,0,1l0.5,0.5c0.1,0.1,0.3,0.2,0.5,0.2
			c0.2,0,0.4-0.1,0.5-0.2c0.3-0.3,0.3-0.7,0-1L56.2,51.6z"/>
	</g>
</g>
<g>
	<path class="st1" d="M34.4,29.8c-0.3-0.3-0.7-0.3-1,0s-0.3,0.7,0,1l0.5,0.5c0.1,0.1,0.3,0.2,0.5,0.2c0.2,0,0.4-0.1,0.5-0.2
		c0.3-0.3,0.3-0.7,0-1L34.4,29.8z"/>
	<path class="st1" d="M45.3,55.8c-0.4,0-1,0.3-1,0.7v0.7c0,0.4,0.6,0.7,1,0.7s1-0.3,1-0.7v-0.7C46.3,56.1,45.7,55.8,45.3,55.8z"/>
	<path class="st1" d="M33.9,51.6l-0.5,0.5c-0.3,0.3-0.3,0.7,0,1c0.1,0.1,0.3,0.2,0.5,0.2c0.2,0,0.4-0.1,0.5-0.2l0.5-0.5
		c0.3-0.3,0.3-0.7,0-1S34.2,51.3,33.9,51.6z"/>
	<path class="st1" d="M30,40.6h-0.7c-0.4,0-0.7,0.1-0.7,0.5s0.3,0.5,0.7,0.5H30c0.4,0,0.7-0.1,0.7-0.5S30.4,40.6,30,40.6z"/>
	<path class="st1" d="M60.8,40.6h-0.7c-0.4,0-0.7,0.1-0.7,0.5s0.3,0.5,0.7,0.5h0.7c0.4,0,0.7-0.1,0.7-0.5S61.2,40.6,60.8,40.6z"/>
	<path class="st1" d="M45.3,25c-0.4,0-1,0.3-1,0.7v0.7c0,0.4,0.6,0.7,1,0.7s1-0.3,1-0.7v-0.7C46.3,25.3,45.7,25,45.3,25z"/>
	<path class="st1" d="M55.7,29.8l-0.5,0.5c-0.3,0.3-0.3,0.7,0,1c0.1,0.1,0.3,0.2,0.5,0.2c0.2,0,0.4-0.1,0.5-0.2l0.5-0.5
		c0.3-0.3,0.3-0.7,0-1C56.4,29.6,55.9,29.6,55.7,29.8z"/>
	<path class="st1" d="M56.2,51.6c-0.3-0.3-0.7-0.3-1,0c-0.3,0.3-0.3,0.7,0,1l0.5,0.5c0.1,0.1,0.3,0.2,0.5,0.2c0.2,0,0.4-0.1,0.5-0.2
		c0.3-0.3,0.3-0.7,0-1L56.2,51.6z"/>
</g>
</svg>
