<?xml version="1.0" encoding="utf-8"?>
<!-- Generator: Adobe Illustrator 20.1.0, SVG Export Plug-In . SVG Version: 6.00 Build 0)  -->
<svg version="1.1" id="Layer_1" xmlns="http://www.w3.org/2000/svg" xmlns:xlink="http://www.w3.org/1999/xlink" x="0px" y="0px"
	 viewBox="0 0 88.5 81.4" style="enable-background:new 0 0 88.5 81.4;" xml:space="preserve">
<style type="text/css">
	.st0{fill:#FFFFFF;}
</style>
<g>
	<path class="st0" d="M26.5,41.1c0,4.8,2,9.2,5,12.4l12.8-12.7v-18C34.3,23.2,26.5,31.3,26.5,41.1z"/>
	<path class="st0" d="M49.3,23.4v13.2h13.7C61.3,29.6,56.3,25,49.3,23.4z"/>
	<path class="st0" d="M49.3,22L49.3,22c-1,0-1,0.3-1,0.6v14.8c0,0.3,0.2,0.1,0.6,0.1h14.8c0.3,0,0.6,0,0.6-1h0
		C62.8,29.6,57.3,23.5,49.3,22z"/>
	<g id="XMLID_3_">
		<g>
			<path class="st0" d="M62.9,37H49V23.4C56,25,61.3,30,62.9,37z"/>
		</g>
		<g>
		</g>
	</g>
	<path class="st0" d="M63.5,40.6H45.3V22.3c0-0.3-0.3-0.6-0.7-0.6c-10.8,0-19.5,8.7-19.5,19.5c0,10.8,8.7,19.5,19.5,19.5
		c10.8,0,19.5-8.7,19.5-19.5C64.1,40.8,63.8,40.6,63.5,40.6z"/>
	<g id="XMLID_2_">
		<g>
			<path class="st0" d="M44,22.9v18L31.2,53.6c-3.1-3.3-4.9-7.6-4.9-12.4C26.3,31.3,34,23.2,44,22.9z"/>
		</g>
		<g>
		</g>
	</g>
</g>
<g id="XMLID_1_">
	<g>
		<path class="st0" d="M44.8,41.8h18c-0.3,9.8-8.4,17.7-18.2,17.7c-4.8,0-9.2-1.9-12.5-4.9L44.8,41.8z"/>
	</g>
	<g>
	</g>
</g>
</svg>
