<?xml version="1.0" encoding="utf-8"?>
<!-- Generator: Adobe Illustrator 20.1.0, SVG Export Plug-In . SVG Version: 6.00 Build 0)  -->
<svg version="1.1" id="Layer_1" xmlns="http://www.w3.org/2000/svg" xmlns:xlink="http://www.w3.org/1999/xlink" x="0px" y="0px"
	 viewBox="0 0 88.5 81.4" style="enable-background:new 0 0 88.5 81.4;" xml:space="preserve">
<style type="text/css">
	.st0{fill:#151E2D;}
	.st1{fill:#FFFFFF;}
</style>
<g>
	<g>
		<g>
			<g>
				<g>
					<path class="st0" d="M45.9,38.1h1.5c0.1,0,0.2,0,0.3,0.1c0.1,0.1,0.1,0.2,0.1,0.3l-0.2,2.2c0,0.2-0.2,0.4-0.4,0.4h-1.3v5.7
						c0,0.2-0.2,0.4-0.4,0.4H43c-0.2,0-0.4-0.2-0.4-0.4V41h-0.8c-0.2,0-0.4-0.2-0.4-0.4v-2.2c0-0.2,0.2-0.4,0.4-0.4h0.8v-1
						c0-0.4,0.1-1.2,0.6-1.9c0.4-0.5,1.1-1.1,2.4-1.1l1.9,0c0.2,0,0.4,0.2,0.4,0.4v2.1c0,0.2-0.2,0.4-0.4,0.4h-1.4
						c-0.1,0-0.1,0-0.1,0.2V38.1z"/>
				</g>
			</g>
			<path class="st0" d="M55.7,29.6c-2.9-2.9-6.9-4.6-11-4.6c-4.2,0-8.1,1.6-11,4.6c-2.9,2.9-4.6,6.9-4.6,11c0,4.2,1.6,8.1,4.6,11
				c2.9,2.9,6.9,4.6,11,4.6c4.2,0,8.1-1.6,11-4.6c2.9-2.9,4.6-6.9,4.6-11C60.2,36.5,58.6,32.5,55.7,29.6z M55,51
				c-2.8,2.8-6.4,4.3-10.3,4.3c-3.9,0-7.6-1.5-10.3-4.3c-2.8-2.8-4.3-6.4-4.3-10.3c0-3.9,1.5-7.6,4.3-10.3c2.8-2.8,6.4-4.3,10.3-4.3
				c3.9,0,7.6,1.5,10.3,4.3c2.8,2.8,4.3,6.4,4.3,10.3C59.3,44.5,57.7,48.2,55,51z"/>
		</g>
	</g>
	<path class="st1" d="M42.2,40.2v-1.4H43c0.2,0,0.4-0.2,0.4-0.4v-1.4c0-0.3,0-0.9,0.4-1.4c0.4-0.5,1-0.7,1.7-0.7l1.5,0v1.3h-1
		c-0.5,0-0.9,0.3-0.9,1v1.3c0,0.2,0.2,0.4,0.4,0.4h1.5l-0.1,1.4h-1.4c-0.2,0-0.4,0.2-0.4,0.4v5.7h-1.7v-5.7c0-0.2-0.2-0.4-0.4-0.4
		H42.2L42.2,40.2z"/>
</g>
</svg>
