<?xml version="1.0" encoding="utf-8"?>
<!-- Generator: Adobe Illustrator 20.1.0, SVG Export Plug-In . SVG Version: 6.00 Build 0)  -->
<svg version="1.1" id="Layer_1" xmlns="http://www.w3.org/2000/svg" xmlns:xlink="http://www.w3.org/1999/xlink" x="0px" y="0px"
	 viewBox="0 0 88.5 81.4" style="enable-background:new 0 0 88.5 81.4;" xml:space="preserve">
<style type="text/css">
	.st0{fill:#151E2D;}
	.st1{fill:#151E2D;stroke:#151E2D;stroke-width:0.2;stroke-miterlimit:10;}
	.st2{fill:#FFFFFF;}
	.st3{fill:none;stroke:#151E2D;stroke-width:0.2;stroke-miterlimit:10;}
</style>
<g>
	<g>
		<path class="st0" d="M56.1,30.6c-2.9-2.9-6.9-4.6-11-4.6s-8.1,1.6-11,4.6c-2.9,2.9-4.6,6.9-4.6,11c0,4.2,1.6,8.1,4.6,11
			c2.9,2.9,6.9,4.6,11,4.6c4.2,0,8.1-1.6,11-4.6c2.9-2.9,4.6-6.9,4.6-11C60.7,37.5,59.1,33.5,56.1,30.6L56.1,30.6z M55.4,52
			c-2.8,2.8-6.4,4.3-10.3,4.3c-3.9,0-7.6-1.5-10.3-4.3c-2.8-2.8-4.3-6.4-4.3-10.3c0-3.9,1.5-7.6,4.3-10.3S41.2,27,45.1,27
			c3.9,0,7.6,1.5,10.3,4.3c2.8,2.8,4.3,6.4,4.3,10.3C59.7,45.5,58.2,49.2,55.4,52L55.4,52z"/>
	</g>
	<g>
		<path class="st1" d="M48.2,35.6H42c-1.6,0-2.9,1.3-2.9,2.9v6.3c0,1.6,1.3,2.9,2.9,2.9h6.3c1.6,0,2.9-1.3,2.9-2.9v-6.3
			C51.1,36.9,49.8,35.6,48.2,35.6z"/>
		<g id="XMLID_9_">
			<g>
				<path class="st2" d="M50.4,38.5v6.3c0,1.2-1,2.1-2.1,2.1H42c-1.2,0-2.1-1-2.1-2.1v-6.3c0-1.2,1-2.1,2.1-2.1h6.3
					C49.4,36.4,50.4,37.3,50.4,38.5z"/>
			</g>
			<g>
				<path class="st3" d="M50.4,44.8c0,1.2-1,2.1-2.1,2.1H42c-1.2,0-2.1-1-2.1-2.1v-6.3c0-1.2,1-2.1,2.1-2.1h6.3c1.2,0,2.1,1,2.1,2.1
					V44.8z"/>
			</g>
		</g>
		<path class="st1" d="M48.5,37.8c-0.3,0-0.5,0.2-0.5,0.5s0.2,0.5,0.5,0.5c0.3,0,0.5-0.2,0.5-0.5C48.9,38,48.7,37.8,48.5,37.8z"/>
		<path class="st1" d="M45.1,38.7c-1.6,0-2.9,1.3-2.9,2.9c0,1.6,1.3,2.9,2.9,2.9c1.6,0,2.9-1.3,2.9-2.9C48.1,40,46.7,38.7,45.1,38.7
			z M45.1,43.8c-1.2,0-2.2-1-2.2-2.2c0-1.2,1-2.2,2.2-2.2c1.2,0,2.2,1,2.2,2.2C47.3,42.8,46.3,43.8,45.1,43.8z"/>
	</g>
</g>
</svg>
