<?xml version="1.0" encoding="utf-8"?>
<!-- Generator: Adobe Illustrator 20.1.0, SVG Export Plug-In . SVG Version: 6.00 Build 0)  -->
<svg version="1.1" id="Layer_1" xmlns="http://www.w3.org/2000/svg" xmlns:xlink="http://www.w3.org/1999/xlink" x="0px" y="0px"
	 viewBox="0 0 88.5 81.4" style="enable-background:new 0 0 88.5 81.4;" xml:space="preserve">
<style type="text/css">
	.st0{fill:#FFFFFF;}
	.st1{fill:none;stroke:#151E2D;stroke-miterlimit:10;}
</style>
<g>
	<g id="XMLID_7_">
		<g>
			<path class="st0" d="M40.1,52.8V38.3c0-0.4-0.3-0.7-0.7-0.7h-2.6c-0.4,0-0.7,0.3-0.7,0.7c0,0.4,0.3,0.7,0.7,0.7h2v13.8
				c0,0.4,0.3,0.7,0.7,0.7C39.9,53.5,40.1,53.2,40.1,52.8z M42.8,42.9c0,2,1.1,3.7,2.8,4.6l-1.3,2.6c-0.1,0-0.3,0-0.5,0.2
				c-0.4,0.3-0.1,0.8-0.1,0.8c0.9,1.4,2.5,2.3,4.4,2.3c2.9,0,5.3-2.4,5.3-5.3v-5.3c0-1.1-0.3-2.1-0.9-2.9c-0.2-0.3-0.4-0.5-0.6-0.8
				c-0.1-0.1-0.2-0.2-0.4-0.3c-0.8-0.6-1.8-1.1-2.8-1.2c-0.2,0-0.3,0-0.5,0C45.1,37.7,42.8,40,42.8,42.9z M64.5,30.4v30.3H25V30.4
				H64.5z"/>
			<path class="st0" d="M64.5,23.9v5.3h-7.2v-2.6c1.1,0,2-0.9,2-2v-0.7H64.5z"/>
			<path class="st0" d="M57.3,26.5v2.6h-25v-2.6c1.1,0,2-0.9,2-2v-0.7h21v0.7C55.3,25.6,56.2,26.5,57.3,26.5z"/>
			<path class="st0" d="M52,46.4v1.8c0,2.2-1.8,4-4,4c-1.4,0-2.6-0.7-3.3-1.8c0,0-0.2-0.2-0.5-0.2l1.3-2.6c0.8,0.4,1.6,0.6,2.5,0.6
				C49.6,48.2,51,47.5,52,46.4z"/>
			<ellipse class="st0" cx="48" cy="42.9" rx="3.9" ry="4"/>
			<path class="st0" d="M52,42.9c0-2.2-1.8-4-4-4s-3.9,1.8-3.9,4s1.8,4,3.9,4S52,45.1,52,42.9z M53.3,42.9v5.3
				c0,2.9-2.4,5.3-5.3,5.3c-1.8,0-3.4-0.9-4.4-2.3c0,0-0.3-0.5,0.1-0.8c0.2-0.1,0.3-0.2,0.5-0.2c0.3,0,0.5,0.2,0.5,0.2
				c0.7,1.1,1.9,1.8,3.3,1.8c2.2,0,4-1.8,4-4v-1.8c-1,1.1-2.4,1.8-4,1.8c-0.9,0-1.8-0.2-2.5-0.6c-1.6-0.9-2.8-2.6-2.8-4.6
				c0-2.9,2.4-5.3,5.3-5.3c0.2,0,0.4,0,0.5,0c1.1,0.1,2,0.5,2.8,1.2c0.1,0.1,0.3,0.2,0.4,0.3c0.2,0.2,0.5,0.5,0.6,0.8
				C53,40.8,53.3,41.9,53.3,42.9z"/>
			<path class="st0" d="M40.1,38.3v14.5c0,0.4-0.3,0.7-0.7,0.7c-0.4,0-0.7-0.3-0.7-0.7V39h-2c-0.4,0-0.7-0.3-0.7-0.7
				c0-0.4,0.3-0.7,0.7-0.7h2.6C39.9,37.7,40.1,38,40.1,38.3z"/>
			<path class="st0" d="M32.3,26.5v2.6H25v-5.3h5.3v0.7C30.3,25.6,31.2,26.5,32.3,26.5z"/>
			<path class="st0" d="M31.6,24.5c0,0.4,0.3,0.7,0.7,0.7c0.4,0,0.6-0.3,0.6-0.7v-2.6c0-0.4-0.3-0.7-0.6-0.7c-0.4,0-0.7,0.3-0.7,0.7
				V24.5z M57.9,24.5v-2.6c0-0.4-0.3-0.7-0.6-0.7c-0.4,0-0.7,0.3-0.7,0.7v2.6c0,0.4,0.3,0.7,0.7,0.7C57.6,25.2,57.9,24.9,57.9,24.5z
				 M64.5,29.1v-5.3h-5.3v0.7c0,1.1-0.9,2-2,2c-1.1,0-2-0.9-2-2v-0.7h-21v0.7c0,1.1-0.9,2-2,2s-2-0.9-2-2v-0.7H25v5.3h7.2h25H64.5z
				 M64.5,60.7V30.4H25v30.3H64.5z M65.8,23.9v36.8c0,0.7-0.6,1.3-1.3,1.3H25c-0.7,0-1.3-0.6-1.3-1.3V23.9c0-0.7,0.6-1.3,1.3-1.3
				h5.3v-0.7c0-1.1,0.9-2,2-2s2,0.9,2,2v0.7h21v-0.7c0-1.1,0.9-2,2-2c1.1,0,2,0.9,2,2v0.7h5.3C65.2,22.6,65.8,23.1,65.8,23.9z"/>
		</g>
		<g>
			<rect x="25" y="30.4" class="st1" width="39.5" height="30.3"/>
			<path class="st1" d="M55.3,23.9v0.7c0,1.1,0.9,2,2,2c1.1,0,2-0.9,2-2v-0.7h5.3v5.3h-7.2h-25H25v-5.3h5.3v0.7c0,1.1,0.9,2,2,2
				s2-0.9,2-2v-0.7H55.3"/>
			<path class="st1" d="M45.5,47.6c0.8,0.4,1.6,0.6,2.5,0.6c1.6,0,3-0.7,4-1.8v1.8c0,2.2-1.8,4-4,4c-1.4,0-2.6-0.7-3.3-1.8
				c0,0-0.2-0.2-0.5-0.2c-0.1,0-0.3,0-0.5,0.2c-0.4,0.3-0.1,0.8-0.1,0.8c0.9,1.4,2.5,2.3,4.4,2.3c2.9,0,5.3-2.4,5.3-5.3v-5.3
				c0-1.1-0.3-2.1-0.9-2.9c-0.2-0.3-0.4-0.5-0.6-0.8c-0.1-0.1-0.2-0.2-0.4-0.3c-0.8-0.6-1.8-1.1-2.8-1.2c-0.2,0-0.3,0-0.5,0
				c-2.9,0-5.3,2.4-5.3,5.3C42.8,44.9,43.9,46.7,45.5,47.6z"/>
			<ellipse class="st1" cx="48" cy="42.9" rx="3.9" ry="4"/>
			<path class="st1" d="M36.9,39h2v13.8c0,0.4,0.3,0.7,0.7,0.7c0.4,0,0.7-0.3,0.7-0.7V38.3c0-0.4-0.3-0.7-0.7-0.7h-2.6
				c-0.4,0-0.7,0.3-0.7,0.7C36.2,38.7,36.5,39,36.9,39z"/>
		</g>
	</g>
</g>
</svg>
