<?xml version="1.0" encoding="utf-8"?>
<!-- Generator: Adobe Illustrator 20.1.0, SVG Export Plug-In . SVG Version: 6.00 Build 0)  -->
<svg version="1.1" id="Layer_1" xmlns="http://www.w3.org/2000/svg" xmlns:xlink="http://www.w3.org/1999/xlink" x="0px" y="0px"
	 viewBox="0 0 88.5 81.4" style="enable-background:new 0 0 88.5 81.4;" xml:space="preserve">
<style type="text/css">
	.st0{fill:#151E2D;}
	.st1{fill:#FFFFFF;}
	.st2{fill:none;stroke:#151E2D;stroke-width:0.2;stroke-miterlimit:10;}
</style>
<g>
	<path class="st0" d="M54.5,29.7c-2.9-2.9-6.8-4.5-10.9-4.5c-4.1,0-8,1.6-10.9,4.5c-2.9,2.9-4.5,6.8-4.5,10.9c0,4.1,1.6,8,4.5,10.9
		c2.9,2.9,6.8,4.5,10.9,4.5c4.1,0,8-1.6,10.9-4.5c2.9-2.9,4.5-6.8,4.5-10.9C59,36.5,57.4,32.6,54.5,29.7z M53.8,50.8
		c-2.7,2.7-6.3,4.2-10.2,4.2c-3.9,0-7.5-1.5-10.2-4.2c-2.7-2.7-4.2-6.3-4.2-10.2c0-3.9,1.5-7.5,4.2-10.2c2.7-2.7,6.3-4.2,10.2-4.2
		c3.9,0,7.5,1.5,10.2,4.2c2.7,2.7,4.2,6.3,4.2,10.2C58.1,44.5,56.6,48.1,53.8,50.8z"/>
	<path class="st0" d="M50.4,37.9c0-0.1-0.2-1.1-0.6-1.6c-0.5-0.6-1.2-0.7-1.5-0.7c0,0,0,0-0.1,0c0,0,0,0,0,0
		c-1.8-0.1-4.5-0.1-4.5-0.1h0c0,0-2.7,0-4.5,0.1c0,0,0,0,0,0c0,0,0,0-0.1,0c-0.3,0-0.9,0.1-1.5,0.7c-0.5,0.5-0.6,1.5-0.6,1.6
		c0,0,0,0,0,0c0,0-0.1,1.1-0.1,2.3v1c0,1.1,0.1,2.2,0.1,2.3l0,0c0,0.1,0.2,1.1,0.6,1.6c0.5,0.6,1.1,0.6,1.5,0.7c0.1,0,0.1,0,0.1,0
		c0,0,0,0,0,0c1,0.1,4.3,0.1,4.4,0.1c0,0,2.7,0,4.5-0.1c0,0,0,0,0,0c0,0,0,0,0.1,0c0.3,0,0.9-0.1,1.4-0.7c0.5-0.5,0.6-1.5,0.6-1.6
		l0,0c0,0,0.1-1.1,0.1-2.3v-1C50.5,39,50.4,37.9,50.4,37.9L50.4,37.9z"/>
	<g id="XMLID_10_">
		<g>
			<path class="st1" d="M49.7,40.1v1c0,1-0.1,2.1-0.1,2.2c0,0.2-0.2,0.9-0.4,1.1c0,0,0,0,0,0c-0.3,0.4-0.7,0.4-0.9,0.4
				c0,0-0.1,0-0.1,0c-1.8,0.1-4.4,0.1-4.4,0.1c0,0-3.3,0-4.3-0.1c-0.1,0-0.1,0-0.2,0c-0.3,0-0.7-0.1-1-0.4c-0.2-0.2-0.4-0.8-0.4-1.1
				c0-0.1-0.1-1.1-0.1-2.2v-1c0-1,0.1-2.1,0.1-2.2c0-0.2,0.2-0.9,0.4-1.1c0,0,0,0,0,0c0.3-0.4,0.7-0.4,1-0.4c0,0,0.1,0,0.1,0
				c1.8-0.1,4.4-0.1,4.4-0.1h0c0,0,2.7,0,4.4,0.1c0,0,0,0,0.1,0c0.2,0,0.6,0.1,0.9,0.4c0,0,0,0,0,0c0.2,0.2,0.4,0.8,0.4,1.1
				C49.6,38,49.7,39.1,49.7,40.1z"/>
		</g>
		<g>
			<path class="st2" d="M49.7,41.2c0,1-0.1,2.1-0.1,2.2c0,0.2-0.2,0.9-0.4,1.1c0,0,0,0,0,0c-0.3,0.4-0.7,0.4-0.9,0.4
				c0,0-0.1,0-0.1,0c-1.8,0.1-4.4,0.1-4.4,0.1c0,0-3.3,0-4.3-0.1c-0.1,0-0.1,0-0.2,0c-0.3,0-0.7-0.1-1-0.4c-0.2-0.2-0.4-0.8-0.4-1.1
				c0-0.1-0.1-1.1-0.1-2.2v-1c0-1,0.1-2.1,0.1-2.2c0-0.2,0.2-0.9,0.4-1.1c0,0,0,0,0,0c0.3-0.4,0.7-0.4,1-0.4c0,0,0.1,0,0.1,0
				c1.8-0.1,4.4-0.1,4.4-0.1h0c0,0,2.7,0,4.4,0.1c0,0,0,0,0.1,0c0.2,0,0.6,0.1,0.9,0.4c0,0,0,0,0,0c0.2,0.2,0.4,0.8,0.4,1.1
				c0,0.1,0.1,1.1,0.1,2.2V41.2z"/>
		</g>
	</g>
	<path class="st0" d="M46.3,40.3l-4-2.4c-0.1-0.1-0.3-0.1-0.4,0c-0.1,0.1-0.2,0.2-0.2,0.3V43c0,0.1,0.1,0.3,0.2,0.3
		c0.1,0,0.1,0.1,0.2,0.1c0.1,0,0.1,0,0.2-0.1l4-2.4c0.1-0.1,0.2-0.2,0.2-0.3S46.4,40.4,46.3,40.3z M42.5,42.4v-3.4l2.9,1.7
		L42.5,42.4z"/>
</g>
</svg>
